<svg width="25" height="25" viewBox="0 0 25 25" fill="none" xmlns="http://www.w3.org/2000/svg">
<g id="icons/close">
<path id="Vector" d="M7.72679 17.3013C7.57645 17.151 7.50134 16.9742 7.50145 16.7711C7.50157 16.5679 7.57676 16.3912 7.72702 16.2409L11.4393 12.5286L7.72702 8.81624C7.57676 8.66598 7.50165 8.48919 7.5017 8.28588C7.50174 8.08254 7.57693 7.90571 7.72725 7.75539C7.87758 7.60506 8.05433 7.52995 8.25751 7.53007C8.46067 7.53018 8.63738 7.60536 8.78764 7.75562L12.5 11.4679L16.2123 7.75562C16.3626 7.60536 16.5394 7.53025 16.7427 7.53028C16.946 7.53034 17.1228 7.60553 17.2732 7.75585C17.4235 7.90618 17.4986 8.08293 17.4985 8.28609C17.4984 8.48927 17.4232 8.66598 17.2729 8.81624L13.5606 12.5286L17.2729 16.2409C17.4232 16.3912 17.4983 16.568 17.4983 16.7713C17.4982 16.9746 17.423 17.1514 17.2727 17.3018C17.1224 17.4521 16.9456 17.5272 16.7425 17.5271C16.5393 17.527 16.3626 17.4518 16.2123 17.3015L12.5 13.5892L8.78764 17.3015C8.63738 17.4518 8.46059 17.5269 8.25726 17.5269C8.05393 17.5268 7.8771 17.4516 7.72679 17.3013Z" fill="white"/>
</g>
</svg>
