<svg width="25" height="25" viewBox="0 0 25 25" fill="none" xmlns="http://www.w3.org/2000/svg">
<g id="icons/drag indicator">
<path id="Vector" d="M9.49999 20.1439C9.05578 20.1439 8.67549 19.9857 8.35914 19.6694C8.04281 19.3531 7.88464 18.9728 7.88464 18.5286C7.88464 18.0843 8.04281 17.7041 8.35914 17.3877C8.67549 17.0714 9.05578 16.9132 9.49999 16.9132C9.94421 16.9132 10.3245 17.0714 10.6408 17.3877C10.9572 17.7041 11.1153 18.0843 11.1153 18.5286C11.1153 18.9728 10.9572 19.3531 10.6408 19.6694C10.3245 19.9857 9.94421 20.1439 9.49999 20.1439ZM15.5 20.1439C15.0558 20.1439 14.6755 19.9857 14.3591 19.6694C14.0428 19.3531 13.8846 18.9728 13.8846 18.5286C13.8846 18.0843 14.0428 17.7041 14.3591 17.3877C14.6755 17.0714 15.0558 16.9132 15.5 16.9132C15.9442 16.9132 16.3245 17.0714 16.6408 17.3877C16.9572 17.7041 17.1153 18.0843 17.1153 18.5286C17.1153 18.9728 16.9572 19.3531 16.6408 19.6694C16.3245 19.9857 15.9442 20.1439 15.5 20.1439ZM9.49999 14.1439C9.05578 14.1439 8.67549 13.9857 8.35914 13.6694C8.04281 13.3531 7.88464 12.9728 7.88464 12.5286C7.88464 12.0843 8.04281 11.7041 8.35914 11.3877C8.67549 11.0714 9.05578 10.9132 9.49999 10.9132C9.94421 10.9132 10.3245 11.0714 10.6408 11.3877C10.9572 11.7041 11.1153 12.0843 11.1153 12.5286C11.1153 12.9728 10.9572 13.3531 10.6408 13.6694C10.3245 13.9857 9.94421 14.1439 9.49999 14.1439ZM15.5 14.1439C15.0558 14.1439 14.6755 13.9857 14.3591 13.6694C14.0428 13.3531 13.8846 12.9728 13.8846 12.5286C13.8846 12.0843 14.0428 11.7041 14.3591 11.3877C14.6755 11.0714 15.0558 10.9132 15.5 10.9132C15.9442 10.9132 16.3245 11.0714 16.6408 11.3877C16.9572 11.7041 17.1153 12.0843 17.1153 12.5286C17.1153 12.9728 16.9572 13.3531 16.6408 13.6694C16.3245 13.9857 15.9442 14.1439 15.5 14.1439ZM9.49999 8.14391C9.05578 8.14391 8.67549 7.98574 8.35914 7.66941C8.04281 7.35306 7.88464 6.97277 7.88464 6.52856C7.88464 6.08434 8.04281 5.70406 8.35914 5.38771C8.67549 5.07138 9.05578 4.91321 9.49999 4.91321C9.94421 4.91321 10.3245 5.07138 10.6408 5.38771C10.9572 5.70406 11.1153 6.08434 11.1153 6.52856C11.1153 6.97277 10.9572 7.35306 10.6408 7.66941C10.3245 7.98574 9.94421 8.14391 9.49999 8.14391ZM15.5 8.14391C15.0558 8.14391 14.6755 7.98574 14.3591 7.66941C14.0428 7.35306 13.8846 6.97277 13.8846 6.52856C13.8846 6.08434 14.0428 5.70406 14.3591 5.38771C14.6755 5.07138 15.0558 4.91321 15.5 4.91321C15.9442 4.91321 16.3245 5.07138 16.6408 5.38771C16.9572 5.70406 17.1153 6.08434 17.1153 6.52856C17.1153 6.97277 16.9572 7.35306 16.6408 7.66941C16.3245 7.98574 15.9442 8.14391 15.5 8.14391Z" fill="black" fill-opacity="0.8"/>
</g>
</svg>
